<svg xmlns="http://www.w3.org/2000/svg" xmlns:xlink="http://www.w3.org/1999/xlink" width="500" zoomAndPan="magnify" viewBox="0 0 375 374.999991" height="500" preserveAspectRatio="xMidYMid meet" version="1.0"><defs><g/><clipPath id="88c4bea44a"><path d="M 58 259 L 348 259 L 348 274.738281 L 58 274.738281 Z M 58 259 " clip-rule="nonzero"/></clipPath></defs><rect x="-37.5" width="450" fill="#ffffff" y="-37.499999" height="449.999989" fill-opacity="1"/><rect x="-37.5" width="450" fill="#ffffff" y="-37.499999" height="449.999989" fill-opacity="1"/><path fill="#ffb532" d="M 204.601562 109.648438 C 190.941406 109.648438 177.765625 111.683594 165.460938 115.558594 C 160.808594 117.011719 207.121094 118.949219 202.761719 120.882812 C 199.664062 122.144531 145.890625 123.402344 142.972656 125.050781 C 128.539062 132.800781 115.652344 143.171875 105.09375 155.574219 C 103.347656 157.703125 200.242188 163.519531 198.59375 165.746094 C 195.695312 169.621094 94.433594 169.914062 92.011719 173.984375 C 90.457031 176.695312 89.015625 179.3125 87.652344 182.027344 C 86.6875 183.867188 118.171875 186.195312 117.300781 188.035156 C 116.429688 190.261719 83.199219 191.910156 82.320312 194.136719 C 76.996094 208.382812 73.984375 223.980469 73.984375 240.160156 C 73.984375 247.132812 74.5625 254.019531 75.632812 260.707031 L 127.761719 202.375 C 131.730469 198.007812 138.324219 198.007812 142.292969 202.375 L 154.597656 216.226562 L 190.933594 175.625 C 194.902344 171.269531 201.496094 171.269531 205.472656 175.625 L 218.640625 190.355469 L 222.523438 185.996094 C 226.492188 181.640625 233.085938 181.640625 237.054688 185.996094 L 257.882812 209.253906 L 264.089844 202.375 C 267.972656 198.007812 274.554688 198.007812 278.53125 202.375 L 333.085938 263.320312 C 334.726562 252.464844 336.183594 228.632812 331.4375 209.253906 C 330.753906 206.34375 330.367188 204.894531 329.503906 202.082031 C 328.925781 200.339844 298.785156 198.597656 298.207031 196.851562 C 297.628906 195.308594 326.113281 192.296875 325.535156 190.742188 C 318.457031 173.597656 307.894531 158.1875 294.625 145.589844 C 291.042969 142.199219 247.054688 138.710938 243.171875 135.707031 C 239.683594 133.09375 276.210938 130.960938 272.535156 128.632812 C 252.664062 116.527344 229.402344 109.648438 204.601562 109.648438 Z M 204.601562 109.648438 " fill-opacity="1" fill-rule="evenodd"/><path fill="#ffe100" d="M 78.34375 252.757812 C 77.953125 248.589844 77.660156 244.425781 77.660156 240.160156 C 77.660156 225.335938 80.277344 210.703125 85.316406 196.75 C 92.484375 195.007812 129.988281 194.714844 130.082031 188.613281 C 130.183594 183.089844 108.570312 179.792969 104.402344 179.113281 C 113.316406 176.886719 155.667969 176.300781 188.507812 173.496094 L 154.597656 211.28125 L 144.714844 200.234375 C 139.480469 194.421875 130.660156 194.421875 125.335938 200.234375 Z M 78.34375 252.757812 " fill-opacity="1" fill-rule="evenodd"/><path fill="#ffe100" d="M 281.050781 200.433594 C 295.972656 202.660156 326.300781 204.214844 327.078125 207.214844 C 329.503906 218.839844 330.953125 238.609375 330.175781 255.269531 Z M 281.050781 200.433594 " fill-opacity="1" fill-rule="evenodd"/><path fill="#ffe100" d="M 263.027344 127.570312 C 257.304688 128.441406 208.957031 130.574219 208.863281 136.777344 C 208.761719 145.691406 283.953125 144.242188 292.191406 148.410156 C 303.722656 159.453125 313.125 172.535156 319.804688 186.972656 C 320.875 189.300781 285.410156 193.566406 275.53125 196.566406 C 270.785156 194.917969 265.355469 196.179688 261.671875 200.25 L 257.894531 204.417969 L 239.488281 183.875 C 234.164062 177.964844 225.335938 177.964844 220.105469 183.875 L 218.648438 185.523438 L 207.898438 173.511719 C 207.222656 172.828125 206.636719 172.15625 205.867188 171.664062 C 219.242188 169.828125 228.441406 167.308594 228.535156 163.71875 C 228.820312 156.738281 124.664062 155.089844 112.066406 153.347656 C 122.722656 142.007812 130.960938 135.035156 144.621094 128.347656 C 163.320312 127.285156 208.769531 123.402344 217.683594 121.953125 C 224.664062 120.789062 200.917969 116.136719 190.363281 114.101562 C 195.003906 113.617188 199.757812 113.324219 204.601562 113.324219 C 225.042969 113.324219 245 118.175781 263.027344 127.570312 Z M 263.027344 127.570312 " fill-opacity="1" fill-rule="evenodd"/><path fill="#2097b2" d="M 77.953125 262.933594 L 130.183594 204.601562 C 132.894531 201.597656 137.253906 201.597656 139.875 204.601562 L 154.605469 221.074219 L 193.359375 177.765625 C 196.074219 174.859375 200.339844 174.859375 203.054688 177.765625 L 218.648438 195.203125 L 224.957031 188.128906 C 227.664062 185.125 231.9375 185.125 234.644531 188.128906 L 257.902344 214.09375 L 266.433594 204.59375 C 269.144531 201.589844 273.5 201.589844 276.125 204.59375 L 328.449219 262.925781 C 290.171875 254.589844 247.734375 249.945312 203.160156 249.945312 C 158.574219 249.953125 116.230469 254.597656 77.953125 262.933594 Z M 77.953125 262.933594 " fill-opacity="1" fill-rule="evenodd"/><path fill="#ffffff" d="M 138.417969 205.863281 L 154.597656 223.878906 L 167.867188 241.609375 C 164.769531 239.195312 157.304688 231.34375 150.722656 225.726562 C 148.394531 223.785156 144.226562 231.152344 142.964844 228.246094 C 141.714844 225.242188 135.792969 208.863281 132.988281 204.792969 C 134.828125 203.824219 136.96875 204.214844 138.417969 205.863281 Z M 138.417969 205.863281 " fill-opacity="1" fill-rule="evenodd"/><path fill="#073260" d="M 81.640625 261.671875 L 126.597656 211.195312 C 126.785156 211.003906 123.394531 221.851562 126.113281 221.460938 C 128.632812 221.074219 130.46875 214.488281 131.246094 217.292969 C 133.1875 224.757812 139.382812 233.179688 142.386719 240.257812 C 143.558594 243.164062 148.109375 227.660156 150.34375 229.601562 C 153.535156 232.308594 155.375 233.863281 161.1875 238.710938 C 162.449219 239.773438 151.980469 238.125 153.242188 239.195312 C 155.277344 240.84375 163.804688 245.492188 168.058594 247.332031 C 170.09375 248.203125 172.425781 249.171875 174.652344 250.042969 C 176.109375 250.042969 177.558594 249.945312 179.113281 249.851562 L 170.09375 241.222656 L 155.855469 222.523438 L 189.769531 184.644531 C 190.355469 184.160156 185.410156 197.914062 188.316406 198.792969 C 190.449219 199.476562 197.914062 189.777344 198.199219 192.011719 C 199.363281 199.476562 199.65625 205.964844 200.234375 217.007812 C 200.328125 219.527344 204.695312 202.667969 205.273438 205.09375 C 206.820312 211.582031 210.695312 226.121094 213.117188 233.773438 C 213.695312 235.621094 207.59375 232.128906 208.183594 233.871094 C 209.726562 238.519531 227.078125 247.539062 227.175781 247.917969 C 221.554688 242.394531 219.226562 240.453125 217.390625 235.90625 C 214.480469 228.441406 216.898438 220.597656 219.625 220.503906 C 225.042969 220.3125 230.761719 225.058594 237.355469 231.453125 C 239.097656 233.292969 230.183594 230.675781 232.023438 232.714844 C 233.1875 233.871094 237.554688 235.328125 240.546875 237.269531 C 245.976562 240.859375 257.117188 244.25 259.539062 246.570312 L 243.84375 232.808594 L 220.105469 196.472656 C 220.976562 195.410156 222.238281 194.917969 224.664062 195.023438 C 225.921875 195.117188 227.769531 193.953125 229.410156 195.894531 C 234.351562 202.191406 240.839844 214.6875 245.890625 220.703125 C 248.503906 223.894531 248.3125 212.074219 250.636719 214.980469 C 254.898438 220.3125 262.066406 229.617188 266.910156 235.042969 C 267.78125 236.007812 259.066406 230.488281 259.929688 231.453125 C 261.578125 233.292969 266.132812 238.039062 269.03125 240.175781 C 273.296875 243.273438 279.699219 244.34375 280.5625 244.921875 L 271.257812 234.851562 L 259.34375 215.378906 L 264.089844 210.148438 C 264.476562 209.761719 264.476562 216.929688 267.679688 218.09375 C 269.609375 218.871094 271.171875 211.21875 272.613281 213.738281 C 277.851562 223.417969 287.058594 239.996094 291.21875 248.226562 C 293.152344 251.910156 300.425781 255.589844 300.8125 256.070312 L 295.289062 247.0625 L 294.507812 234.757812 L 324.550781 261.59375 C 338.496094 264.597656 351.972656 267.988281 364.855469 271.964844 C 315.4375 261.015625 260.792969 254.914062 203.136719 254.914062 C 145.578125 254.914062 90.832031 261.023438 41.515625 271.964844 C 54.3125 268.074219 67.6875 264.582031 81.640625 261.671875 Z M 81.640625 261.671875 " fill-opacity="1" fill-rule="evenodd"/><path fill="#ffffff" d="M 211.476562 220.304688 C 210.703125 211.582031 197.136719 178.058594 200.140625 177.378906 L 216.621094 197.527344 L 238.710938 229.210938 C 232.214844 223.785156 223.6875 214.871094 217.683594 215.550781 C 215.257812 215.742188 213.03125 217.199219 211.476562 220.304688 Z M 211.476562 220.304688 " fill-opacity="1" fill-rule="evenodd"/><path fill="#ffffff" d="M 245.105469 215.257812 C 242.488281 212.058594 232.894531 194.617188 228.917969 187.9375 C 230.46875 187.644531 232.015625 188.128906 233.179688 189.484375 L 257.894531 217 L 262.15625 224.84375 C 257.410156 219.609375 254.019531 215.734375 250.039062 211.472656 C 247.519531 208.769531 247.710938 218.460938 245.105469 215.257812 Z M 245.105469 215.257812 " fill-opacity="1" fill-rule="evenodd"/><path fill="#ffffff" d="M 290.835938 242.679688 C 289.671875 241.421875 279.015625 216.421875 271.363281 204.214844 C 272.527344 204.214844 273.785156 204.792969 274.753906 205.863281 L 306.828125 241.707031 L 292.683594 230.179688 Z M 290.835938 242.679688 " fill-opacity="1" fill-rule="evenodd"/><g clip-path="url(#88c4bea44a)"><path fill="#073260" d="M 203.144531 259.351562 C 150.238281 259.351562 100.726562 264.875 58.675781 274.5625 C 102.761719 267.195312 151.695312 263.027344 203.144531 263.027344 C 254.691406 263.027344 303.53125 267.195312 347.710938 274.5625 C 305.652344 264.875 256.148438 259.351562 203.144531 259.351562 Z M 203.144531 259.351562 " fill-opacity="1" fill-rule="evenodd"/></g><path fill="#073260" d="M 95.609375 159.644531 C 94.433594 160.320312 93.277344 160.90625 92.113281 161.578125 C 92.597656 162.554688 93.183594 163.710938 93.855469 165.066406 C 94.433594 163.328125 94.925781 161.578125 95.609375 159.644531 Z M 84.070312 167.488281 C 81.363281 169.914062 78.9375 172.71875 76.710938 175.824219 C 76.039062 174.28125 75.355469 172.820312 74.683594 171.269531 C 74.777344 175.238281 72.835938 177.765625 72.929688 181.832031 C 70.902344 186.386719 67.511719 191.8125 65.277344 196.464844 C 71.957031 213.03125 79.902344 228.054688 86.589844 240.359375 C 84.746094 213.617188 84.554688 198.40625 91.535156 173.21875 C 89.015625 171.171875 86.496094 169.136719 84.070312 167.488281 Z M 64.691406 194.910156 C 62.949219 172.433594 69.628906 164.875 80.484375 159.738281 L 78.257812 152.371094 L 77.480469 152.371094 L 76.308594 160.023438 L 67.78125 151.5 C 67.203125 152.078125 66.53125 152.5625 65.847656 153.148438 C 61.679688 154.40625 57.21875 155.183594 53.058594 156.445312 C 55.683594 169.722656 59.851562 182.703125 64.691406 194.910156 Z M 89.015625 156.347656 C 90.65625 155.667969 92.40625 155.089844 94.148438 154.40625 C 92.019531 153.925781 88.914062 153.535156 86.496094 153.054688 C 87.367188 154.21875 88.238281 155.382812 89.015625 156.347656 Z M 85.71875 152.085938 C 86.210938 150.921875 87.265625 149.757812 87.566406 148.496094 C 86.496094 149.273438 85.433594 149.945312 84.46875 150.628906 C 84.847656 151.113281 85.332031 151.601562 85.71875 152.085938 Z M 52.972656 155.960938 C 54.714844 154.019531 59.753906 148.695312 64.207031 144.820312 L 62.558594 140.746094 C 61.59375 142.199219 60.722656 143.554688 59.753906 144.914062 C 57.140625 143.75 53.457031 142.585938 50.9375 141.523438 C 51.324219 146.367188 52.09375 151.113281 52.972656 155.960938 Z M 75.925781 141.136719 C 83.296875 142.878906 94.046875 147.433594 94.046875 147.433594 C 94.046875 147.433594 93.953125 133.578125 95.410156 131.644531 C 96.953125 129.804688 97.542969 130.773438 99.378906 131.9375 C 101.21875 133 106.160156 137.070312 106.160156 137.070312 C 104.023438 137.363281 101.898438 137.648438 99.769531 137.847656 C 100.15625 139.011719 101.019531 138.625 101.40625 139.78125 C 100.828125 141.429688 99.863281 144.433594 99.277344 146.175781 C 99.277344 146.175781 106.738281 138.226562 112.453125 135.804688 C 118.164062 133.378906 122.4375 135.320312 125.628906 136.382812 C 128.832031 137.453125 140.746094 145.105469 140.746094 145.105469 C 140.746094 145.105469 127.570312 143.648438 125.535156 144.035156 C 123.496094 144.425781 116.8125 141.328125 116.8125 141.328125 C 117.777344 142.972656 119.425781 143.257812 120.488281 145.011719 C 116.898438 146.074219 114.480469 147.238281 110.996094 148.210938 C 109.449219 147.339844 106.058594 147.824219 104.507812 146.953125 C 105.28125 148.601562 107.320312 147.824219 107.992188 149.375 C 105.957031 150.152344 102.667969 153.347656 100.632812 154.027344 C 100.632812 154.027344 115.84375 162.363281 117.976562 165.753906 C 120.105469 169.144531 124.566406 180.679688 124.859375 183.289062 C 125.25 185.902344 126.5 200.242188 126.5 200.242188 C 122.824219 196.273438 119.433594 189.878906 115.75 185.808594 C 116.136719 180.964844 116.328125 178.445312 116.714844 173.503906 C 115.359375 175.539062 114.007812 177.574219 112.652344 179.605469 C 111.003906 176.402344 109.355469 173.210938 107.707031 169.914062 C 107.605469 167.488281 107.605469 165.066406 107.515625 162.648438 C 106.351562 163.320312 105.1875 164.097656 104.023438 164.777344 C 102.28125 163.328125 99.664062 161.578125 97.820312 160.035156 C 96.945312 162.847656 96.179688 165.746094 95.496094 168.558594 C 98.207031 174.277344 101.121094 180.378906 101.121094 180.378906 C 98.894531 179.023438 96.566406 177.1875 94.238281 175.339844 C 89.292969 204.507812 95.601562 234.640625 98.121094 251.59375 L 93.175781 252.269531 C 93.847656 253.632812 94.625 254.882812 95.308594 256.144531 C 91.71875 258.179688 88.136719 260.121094 84.546875 262.148438 C 61.964844 213.023438 53.25 195 48.210938 141.90625 C 42.015625 149.75 37.554688 158.859375 35.621094 169.714844 C 34.164062 168.066406 32.714844 166.515625 31.261719 164.867188 C 33.292969 169.8125 32.417969 173.78125 34.464844 178.722656 C 34.464844 185.703125 33.300781 194.515625 33.300781 201.496094 C 13.730469 161.378906 27.101562 152.464844 44.152344 135.898438 C 41.152344 136.089844 36.878906 137.160156 33.980469 137.453125 C 33.6875 135.511719 34.464844 133.085938 34.171875 131.152344 C 32.714844 133.480469 31.460938 135.511719 30.097656 137.839844 C 26.320312 139.488281 21.289062 141.914062 17.601562 143.554688 C 17.707031 140.453125 17.894531 137.355469 17.992188 134.25 C 16.058594 137.839844 14.894531 142.101562 12.960938 145.683594 C 8.886719 149.171875 4.140625 151.984375 0.0703125 155.46875 C 0.0703125 155.46875 7.238281 131.34375 11.984375 128.046875 C 16.738281 124.65625 40.667969 127.175781 40.667969 127.175781 C 40.667969 127.175781 33.894531 109.832031 34.566406 106.828125 C 35.25 103.824219 36.414062 104.894531 38.925781 105.570312 C 41.445312 106.25 48.710938 109.347656 48.710938 109.347656 C 46.578125 110.511719 44.351562 111.675781 42.222656 112.835938 C 43.1875 114.09375 43.964844 113.316406 44.929688 114.578125 C 45.121094 116.804688 45.507812 121.066406 45.707031 123.394531 C 45.707031 123.394531 49.96875 110.503906 54.914062 105.179688 C 59.953125 99.847656 65.476562 100.53125 69.445312 100.625 C 73.414062 100.71875 89.992188 105.472656 89.992188 105.472656 C 89.992188 105.472656 75.070312 108.960938 73.035156 110.21875 C 71 111.480469 62.273438 110.316406 62.273438 110.316406 C 64.207031 112.058594 66.148438 111.773438 67.988281 113.515625 C 64.699219 116.226562 62.664062 118.648438 59.367188 121.359375 C 57.226562 120.875 53.835938 122.816406 51.714844 122.328125 C 53.359375 124.070312 55.105469 122.230469 56.648438 123.972656 C 54.804688 125.71875 52.773438 131.050781 50.9375 132.792969 C 50.9375 132.792969 71.378906 137.054688 75.347656 140.542969 C 75.546875 140.746094 75.738281 140.945312 75.925781 141.136719 Z M 75.925781 141.136719 " fill-opacity="1" fill-rule="evenodd"/><path fill="#073260" d="M 165.070312 80.09375 L 161.871094 72.148438 L 165.160156 70.5 C 166.324219 69.921875 169.515625 70.886719 170.484375 71.46875 L 178.523438 76.117188 L 196.542969 66.523438 L 185.308594 60.414062 L 137.632812 47.53125 L 140.246094 43.75 C 140.246094 43.75 140.824219 42.785156 143.640625 41.90625 L 188.984375 45.199219 L 198.292969 39.386719 C 199.742188 38.515625 201.96875 39.480469 203.324219 41.613281 C 204.394531 43.261719 204.488281 45.097656 203.816406 46.261719 L 232.5 48.394531 L 255.855469 36.183594 C 256.824219 35.597656 260.308594 31.921875 265.347656 30.367188 C 270.871094 28.722656 271.164062 29.695312 274.554688 29.980469 C 279.109375 30.367188 284.632812 28.722656 285.988281 33.179688 C 289.191406 43.742188 242.964844 65.9375 241.324219 66.417969 L 245.585938 66.324219 L 244.128906 76.695312 C 245.199219 76.886719 246.167969 77.664062 246.847656 78.921875 C 247.8125 80.664062 247.625 82.703125 246.355469 83.382812 L 243.066406 85.316406 L 241.136719 99.753906 C 240.839844 102.460938 239.582031 103.53125 238.027344 104.214844 L 233.472656 106.050781 L 226.792969 84.152344 L 215.164062 78.820312 C 214.195312 79.113281 208.570312 81.925781 196.359375 85.695312 C 182.210938 89.960938 178.144531 90.546875 177.179688 90.933594 L 177.660156 98.296875 C 177.765625 99.554688 174.5625 101.203125 173.691406 100.617188 L 163.421875 93.058594 C 161.964844 93.542969 158.1875 94.222656 157.804688 93.058594 C 157.316406 91.410156 157.710938 90.640625 158.382812 89.960938 L 138.617188 80.269531 C 138.425781 80.175781 138.332031 80.078125 138.332031 79.976562 L 138.332031 79.882812 C 138.039062 78.8125 140.753906 76.488281 144.042969 77.070312 L 163.519531 79.882812 C 164.097656 80 164.582031 80 165.070312 80.09375 Z M 165.070312 80.09375 " fill-opacity="1" fill-rule="evenodd"/><g fill="#073260" fill-opacity="1"><g transform="translate(83.902494, 320.771481)"><g><path d="M 0.375 -31.546875 L 0.375 -39.4375 L 28.109375 -39.4375 L 28.109375 -31.546875 L 18.734375 -31.546875 L 18.734375 0 L 9.75 0 L 9.75 -31.546875 Z M 0.375 -31.546875 "/></g></g></g><g fill="#073260" fill-opacity="1"><g transform="translate(112.388713, 320.771481)"><g><path d="M 2.875 -39.4375 L 16.96875 -39.4375 C 20.757812 -39.4375 23.847656 -38.421875 26.234375 -36.390625 C 28.628906 -34.367188 29.828125 -31.476562 29.828125 -27.71875 C 29.828125 -24.820312 29.097656 -22.394531 27.640625 -20.4375 C 26.191406 -18.476562 24.226562 -17.097656 21.75 -16.296875 L 35.328125 0 L 23.90625 0 L 11.859375 -15.578125 L 11.859375 0 L 2.875 0 Z M 11.859375 -21.9375 L 12.90625 -21.9375 C 13.726562 -21.9375 14.425781 -21.953125 15 -21.984375 C 15.582031 -22.015625 16.238281 -22.125 16.96875 -22.3125 C 17.695312 -22.507812 18.285156 -22.78125 18.734375 -23.125 C 19.179688 -23.476562 19.5625 -23.988281 19.875 -24.65625 C 20.195312 -25.332031 20.359375 -26.144531 20.359375 -27.09375 C 20.359375 -28.050781 20.195312 -28.863281 19.875 -29.53125 C 19.5625 -30.207031 19.179688 -30.71875 18.734375 -31.0625 C 18.285156 -31.414062 17.695312 -31.6875 16.96875 -31.875 C 16.238281 -32.070312 15.582031 -32.1875 15 -32.21875 C 14.425781 -32.25 13.726562 -32.265625 12.90625 -32.265625 L 11.859375 -32.265625 Z M 11.859375 -21.9375 "/></g></g></g><g fill="#073260" fill-opacity="1"><g transform="translate(146.610443, 320.771481)"><g><path d="M 22.890625 -39.4375 L 38.8125 0 L 29.15625 0 L 26.234375 -7.890625 L 11.234375 -7.890625 L 8.3125 0 L -1.34375 0 L 14.578125 -39.4375 Z M 23.1875 -15.765625 L 18.78125 -27.25 L 18.6875 -27.25 L 14.296875 -15.765625 Z M 23.1875 -15.765625 "/></g></g></g><g fill="#073260" fill-opacity="1"><g transform="translate(184.082284, 320.771481)"><g><path d="M 15.203125 0 L -1.34375 -39.4375 L 8.796875 -39.4375 L 18.734375 -13.53125 L 28.671875 -39.4375 L 38.8125 -39.4375 L 22.265625 0 Z M 15.203125 0 "/></g></g></g><g fill="#073260" fill-opacity="1"><g transform="translate(221.554125, 320.771481)"><g><path d="M 25.421875 -39.4375 L 25.421875 -31.546875 L 11.859375 -31.546875 L 11.859375 -23.703125 L 24.859375 -23.703125 L 24.859375 -15.828125 L 11.859375 -15.828125 L 11.859375 -7.890625 L 25.421875 -7.890625 L 25.421875 0 L 2.875 0 L 2.875 -39.4375 Z M 25.421875 -39.4375 "/></g></g></g><g fill="#073260" fill-opacity="1"><g transform="translate(249.275631, 320.771481)"><g><path d="M 11.859375 -39.4375 L 11.859375 -7.890625 L 25.421875 -7.890625 L 25.421875 0 L 2.875 0 L 2.875 -39.4375 Z M 11.859375 -39.4375 "/></g></g></g><g fill="#073260" fill-opacity="1"><g transform="translate(276.280194, 320.771481)"><g><path d="M 11.859375 -39.4375 L 11.859375 0 L 2.875 0 L 2.875 -39.4375 Z M 11.859375 -39.4375 "/></g></g></g><g fill="#073260" fill-opacity="1"><g transform="translate(144.136445, 340.498068)"><g><path d="M 3.171875 0 L 3.171875 -8.390625 L 0.390625 -8.390625 L 0.390625 -9.3125 L 7.0625 -9.3125 L 7.0625 -8.390625 L 4.28125 -8.390625 L 4.28125 0 Z M 3.171875 0 "/></g></g></g><g fill="#073260" fill-opacity="1"><g transform="translate(151.578232, 340.498068)"><g><path d="M 0.921875 0 L 0.921875 -6.59375 L 1.921875 -6.59375 L 2.015625 -5.328125 C 2.222656 -5.765625 2.535156 -6.109375 2.953125 -6.359375 C 3.367188 -6.617188 3.882812 -6.75 4.5 -6.75 L 4.5 -5.578125 L 4.1875 -5.578125 C 3.800781 -5.578125 3.441406 -5.507812 3.109375 -5.375 C 2.785156 -5.238281 2.523438 -5.003906 2.328125 -4.671875 C 2.128906 -4.347656 2.03125 -3.898438 2.03125 -3.328125 L 2.03125 0 Z M 0.921875 0 "/></g></g></g><g fill="#073260" fill-opacity="1"><g transform="translate(156.402097, 340.498068)"><g><path d="M 3.109375 0.15625 C 2.554688 0.15625 2.097656 0.0625 1.734375 -0.125 C 1.378906 -0.3125 1.113281 -0.554688 0.9375 -0.859375 C 0.757812 -1.171875 0.671875 -1.507812 0.671875 -1.875 C 0.671875 -2.550781 0.925781 -3.066406 1.4375 -3.421875 C 1.945312 -3.785156 2.644531 -3.96875 3.53125 -3.96875 L 5.3125 -3.96875 L 5.3125 -4.0625 C 5.3125 -4.632812 5.160156 -5.066406 4.859375 -5.359375 C 4.566406 -5.660156 4.164062 -5.8125 3.65625 -5.8125 C 3.21875 -5.8125 2.84375 -5.703125 2.53125 -5.484375 C 2.21875 -5.265625 2.019531 -4.945312 1.9375 -4.53125 L 0.796875 -4.53125 C 0.835938 -5.007812 1 -5.410156 1.28125 -5.734375 C 1.5625 -6.066406 1.910156 -6.316406 2.328125 -6.484375 C 2.742188 -6.660156 3.1875 -6.75 3.65625 -6.75 C 4.582031 -6.75 5.273438 -6.503906 5.734375 -6.015625 C 6.203125 -5.523438 6.4375 -4.875 6.4375 -4.0625 L 6.4375 0 L 5.4375 0 L 5.375 -1.1875 C 5.1875 -0.8125 4.910156 -0.492188 4.546875 -0.234375 C 4.191406 0.0234375 3.710938 0.15625 3.109375 0.15625 Z M 3.28125 -0.78125 C 3.707031 -0.78125 4.070312 -0.890625 4.375 -1.109375 C 4.6875 -1.335938 4.921875 -1.628906 5.078125 -1.984375 C 5.234375 -2.335938 5.3125 -2.707031 5.3125 -3.09375 L 5.3125 -3.109375 L 3.625 -3.109375 C 2.96875 -3.109375 2.503906 -2.992188 2.234375 -2.765625 C 1.960938 -2.546875 1.828125 -2.265625 1.828125 -1.921875 C 1.828125 -1.578125 1.953125 -1.300781 2.203125 -1.09375 C 2.460938 -0.882812 2.820312 -0.78125 3.28125 -0.78125 Z M 3.28125 -0.78125 "/></g></g></g><g fill="#073260" fill-opacity="1"><g transform="translate(163.591393, 340.498068)"><g><path d="M 2.8125 0 L 0.3125 -6.59375 L 1.484375 -6.59375 L 3.46875 -1.078125 L 5.46875 -6.59375 L 6.609375 -6.59375 L 4.109375 0 Z M 2.8125 0 "/></g></g></g><g fill="#073260" fill-opacity="1"><g transform="translate(170.514902, 340.498068)"><g><path d="M 3.875 0.15625 C 3.25 0.15625 2.691406 0.015625 2.203125 -0.265625 C 1.710938 -0.554688 1.328125 -0.957031 1.046875 -1.46875 C 0.773438 -1.988281 0.640625 -2.597656 0.640625 -3.296875 C 0.640625 -3.984375 0.773438 -4.585938 1.046875 -5.109375 C 1.328125 -5.628906 1.710938 -6.03125 2.203125 -6.3125 C 2.691406 -6.601562 3.257812 -6.75 3.90625 -6.75 C 4.539062 -6.75 5.09375 -6.601562 5.5625 -6.3125 C 6.03125 -6.03125 6.382812 -5.65625 6.625 -5.1875 C 6.875 -4.71875 7 -4.210938 7 -3.671875 C 7 -3.578125 7 -3.476562 7 -3.375 C 7 -3.28125 7 -3.171875 7 -3.046875 L 1.734375 -3.046875 C 1.765625 -2.535156 1.882812 -2.113281 2.09375 -1.78125 C 2.300781 -1.457031 2.5625 -1.207031 2.875 -1.03125 C 3.1875 -0.863281 3.519531 -0.78125 3.875 -0.78125 C 4.34375 -0.78125 4.726562 -0.882812 5.03125 -1.09375 C 5.34375 -1.3125 5.570312 -1.601562 5.71875 -1.96875 L 6.828125 -1.96875 C 6.648438 -1.351562 6.304688 -0.84375 5.796875 -0.4375 C 5.296875 -0.0390625 4.65625 0.15625 3.875 0.15625 Z M 3.875 -5.8125 C 3.34375 -5.8125 2.867188 -5.648438 2.453125 -5.328125 C 2.046875 -5.003906 1.8125 -4.53125 1.75 -3.90625 L 5.90625 -3.90625 C 5.875 -4.5 5.664062 -4.960938 5.28125 -5.296875 C 4.90625 -5.640625 4.4375 -5.8125 3.875 -5.8125 Z M 3.875 -5.8125 "/></g></g></g><g fill="#073260" fill-opacity="1"><g transform="translate(178.076285, 340.498068)"><g><path d="M 0.921875 0 L 0.921875 -9.578125 L 2.03125 -9.578125 L 2.03125 0 Z M 0.921875 0 "/></g></g></g><g fill="#073260" fill-opacity="1"><g transform="translate(181.026418, 340.498068)"><g/></g></g><g fill="#073260" fill-opacity="1"><g transform="translate(184.547971, 340.498068)"><g><path d="M 0.40625 0 L 3.828125 -9.3125 L 5.015625 -9.3125 L 8.4375 0 L 7.25 0 L 6.390625 -2.390625 L 2.4375 -2.390625 L 1.5625 0 Z M 2.765625 -3.296875 L 6.0625 -3.296875 L 4.421875 -7.890625 Z M 2.765625 -3.296875 "/></g></g></g><g fill="#073260" fill-opacity="1"><g transform="translate(193.371791, 340.498068)"><g><path d="M 3.53125 -2.078125 C 3.15625 -2.078125 2.8125 -2.125 2.5 -2.21875 L 1.828125 -1.59375 C 1.929688 -1.519531 2.054688 -1.457031 2.203125 -1.40625 C 2.347656 -1.363281 2.554688 -1.320312 2.828125 -1.28125 C 3.109375 -1.238281 3.492188 -1.195312 3.984375 -1.15625 C 4.867188 -1.09375 5.503906 -0.890625 5.890625 -0.546875 C 6.273438 -0.203125 6.46875 0.25 6.46875 0.8125 C 6.46875 1.195312 6.363281 1.5625 6.15625 1.90625 C 5.945312 2.25 5.625 2.53125 5.1875 2.75 C 4.757812 2.96875 4.207031 3.078125 3.53125 3.078125 C 2.9375 3.078125 2.410156 3 1.953125 2.84375 C 1.492188 2.695312 1.132812 2.460938 0.875 2.140625 C 0.613281 1.828125 0.484375 1.429688 0.484375 0.953125 C 0.484375 0.703125 0.550781 0.429688 0.6875 0.140625 C 0.820312 -0.140625 1.070312 -0.410156 1.4375 -0.671875 C 1.238281 -0.742188 1.070312 -0.828125 0.9375 -0.921875 C 0.800781 -1.015625 0.675781 -1.117188 0.5625 -1.234375 L 0.5625 -1.546875 L 1.6875 -2.65625 C 1.164062 -3.101562 0.90625 -3.691406 0.90625 -4.421875 C 0.90625 -4.847656 1.003906 -5.238281 1.203125 -5.59375 C 1.410156 -5.945312 1.707031 -6.226562 2.09375 -6.4375 C 2.488281 -6.644531 2.96875 -6.75 3.53125 -6.75 C 3.90625 -6.75 4.25 -6.695312 4.5625 -6.59375 L 7 -6.59375 L 7 -5.75 L 5.75 -5.703125 C 6.007812 -5.328125 6.140625 -4.898438 6.140625 -4.421875 C 6.140625 -3.984375 6.035156 -3.585938 5.828125 -3.234375 C 5.617188 -2.878906 5.320312 -2.597656 4.9375 -2.390625 C 4.550781 -2.179688 4.082031 -2.078125 3.53125 -2.078125 Z M 3.53125 -2.984375 C 4 -2.984375 4.367188 -3.101562 4.640625 -3.34375 C 4.921875 -3.59375 5.0625 -3.953125 5.0625 -4.421875 C 5.0625 -4.867188 4.921875 -5.210938 4.640625 -5.453125 C 4.367188 -5.703125 4 -5.828125 3.53125 -5.828125 C 3.050781 -5.828125 2.671875 -5.703125 2.390625 -5.453125 C 2.109375 -5.210938 1.96875 -4.867188 1.96875 -4.421875 C 1.96875 -3.953125 2.109375 -3.59375 2.390625 -3.34375 C 2.671875 -3.101562 3.050781 -2.984375 3.53125 -2.984375 Z M 1.578125 0.84375 C 1.578125 1.289062 1.765625 1.625 2.140625 1.84375 C 2.515625 2.0625 2.976562 2.171875 3.53125 2.171875 C 4.082031 2.171875 4.523438 2.050781 4.859375 1.8125 C 5.191406 1.570312 5.359375 1.25 5.359375 0.84375 C 5.359375 0.5625 5.242188 0.316406 5.015625 0.109375 C 4.785156 -0.0976562 4.359375 -0.21875 3.734375 -0.25 C 3.242188 -0.289062 2.820312 -0.335938 2.46875 -0.390625 C 2.101562 -0.191406 1.863281 0.015625 1.75 0.234375 C 1.632812 0.460938 1.578125 0.664062 1.578125 0.84375 Z M 1.578125 0.84375 "/></g></g></g><g fill="#073260" fill-opacity="1"><g transform="translate(200.707263, 340.498068)"><g><path d="M 3.875 0.15625 C 3.25 0.15625 2.691406 0.015625 2.203125 -0.265625 C 1.710938 -0.554688 1.328125 -0.957031 1.046875 -1.46875 C 0.773438 -1.988281 0.640625 -2.597656 0.640625 -3.296875 C 0.640625 -3.984375 0.773438 -4.585938 1.046875 -5.109375 C 1.328125 -5.628906 1.710938 -6.03125 2.203125 -6.3125 C 2.691406 -6.601562 3.257812 -6.75 3.90625 -6.75 C 4.539062 -6.75 5.09375 -6.601562 5.5625 -6.3125 C 6.03125 -6.03125 6.382812 -5.65625 6.625 -5.1875 C 6.875 -4.71875 7 -4.210938 7 -3.671875 C 7 -3.578125 7 -3.476562 7 -3.375 C 7 -3.28125 7 -3.171875 7 -3.046875 L 1.734375 -3.046875 C 1.765625 -2.535156 1.882812 -2.113281 2.09375 -1.78125 C 2.300781 -1.457031 2.5625 -1.207031 2.875 -1.03125 C 3.1875 -0.863281 3.519531 -0.78125 3.875 -0.78125 C 4.34375 -0.78125 4.726562 -0.882812 5.03125 -1.09375 C 5.34375 -1.3125 5.570312 -1.601562 5.71875 -1.96875 L 6.828125 -1.96875 C 6.648438 -1.351562 6.304688 -0.84375 5.796875 -0.4375 C 5.296875 -0.0390625 4.65625 0.15625 3.875 0.15625 Z M 3.875 -5.8125 C 3.34375 -5.8125 2.867188 -5.648438 2.453125 -5.328125 C 2.046875 -5.003906 1.8125 -4.53125 1.75 -3.90625 L 5.90625 -3.90625 C 5.875 -4.5 5.664062 -4.960938 5.28125 -5.296875 C 4.90625 -5.640625 4.4375 -5.8125 3.875 -5.8125 Z M 3.875 -5.8125 "/></g></g></g><g fill="#073260" fill-opacity="1"><g transform="translate(208.268646, 340.498068)"><g><path d="M 0.921875 0 L 0.921875 -6.59375 L 1.921875 -6.59375 L 2 -5.40625 C 2.207031 -5.820312 2.507812 -6.148438 2.90625 -6.390625 C 3.3125 -6.628906 3.765625 -6.75 4.265625 -6.75 C 5.046875 -6.75 5.664062 -6.507812 6.125 -6.03125 C 6.59375 -5.5625 6.828125 -4.835938 6.828125 -3.859375 L 6.828125 0 L 5.71875 0 L 5.71875 -3.734375 C 5.71875 -5.109375 5.148438 -5.796875 4.015625 -5.796875 C 3.453125 -5.796875 2.976562 -5.585938 2.59375 -5.171875 C 2.21875 -4.765625 2.03125 -4.179688 2.03125 -3.421875 L 2.03125 0 Z M 0.921875 0 "/></g></g></g><g fill="#073260" fill-opacity="1"><g transform="translate(215.86989, 340.498068)"><g><path d="M 3.953125 0.15625 C 3.316406 0.15625 2.75 0.015625 2.25 -0.265625 C 1.75 -0.554688 1.351562 -0.960938 1.0625 -1.484375 C 0.78125 -2.003906 0.640625 -2.609375 0.640625 -3.296875 C 0.640625 -3.984375 0.78125 -4.585938 1.0625 -5.109375 C 1.351562 -5.628906 1.75 -6.03125 2.25 -6.3125 C 2.75 -6.601562 3.316406 -6.75 3.953125 -6.75 C 4.734375 -6.75 5.390625 -6.546875 5.921875 -6.140625 C 6.460938 -5.734375 6.800781 -5.1875 6.9375 -4.5 L 5.796875 -4.5 C 5.710938 -4.914062 5.492188 -5.234375 5.140625 -5.453125 C 4.796875 -5.679688 4.394531 -5.796875 3.9375 -5.796875 C 3.5625 -5.796875 3.207031 -5.703125 2.875 -5.515625 C 2.550781 -5.328125 2.285156 -5.046875 2.078125 -4.671875 C 1.878906 -4.304688 1.78125 -3.847656 1.78125 -3.296875 C 1.78125 -2.742188 1.878906 -2.28125 2.078125 -1.90625 C 2.285156 -1.539062 2.550781 -1.257812 2.875 -1.0625 C 3.207031 -0.875 3.5625 -0.78125 3.9375 -0.78125 C 4.394531 -0.78125 4.796875 -0.894531 5.140625 -1.125 C 5.492188 -1.351562 5.710938 -1.675781 5.796875 -2.09375 L 6.9375 -2.09375 C 6.800781 -1.425781 6.460938 -0.882812 5.921875 -0.46875 C 5.390625 -0.0507812 4.734375 0.15625 3.953125 0.15625 Z M 3.953125 0.15625 "/></g></g></g><g fill="#073260" fill-opacity="1"><g transform="translate(223.444555, 340.498068)"><g><path d="M 1.640625 2.921875 L 3.265625 -0.640625 L 2.890625 -0.640625 L 0.265625 -6.59375 L 1.46875 -6.59375 L 3.65625 -1.46875 L 5.96875 -6.59375 L 7.125 -6.59375 L 2.8125 2.921875 Z M 1.640625 2.921875 "/></g></g></g></svg>